#!OML:ASF F:\VICON\USERDATA\INSTALL\rory3\rory3.ASF
:FULLY-SPECIFIED
:DEGREES
837
root -0.957405 25.2519 1.33727 -0.656083 3.98893 -355.615
lowerback 6.78794 0.988723 1.37207
upperback 2.23667 1.45064 2.19443
thorax -1.52148 0.721922 1.37204
lowerneck -12.9448 0.803324 -9.83089
upperneck 42.5036 5.39727 -1.35595
head 17.8866 0.50651 2.13692
rclavicle -1.53064e-014 -3.33958e-014
rhumerus -28.8199 -7.44557 -76.8822
rradius 37.1606
rwrist 17.1685
rhand -19.7511 0.970846
rfingers 7.12502
rthumb 6.58009 -28.9069
lclavicle -1.53064e-014 -3.33958e-014
lhumerus -37.7311 18.5768 77.7333
lradius 25.2455
lwrist -7.29226
lhand -13.1072 25.3016
lfingers 7.12502
lthumb 12.9899 54.8772
rfemur -11.8546 -8.64878 22.0591
rtibia 38.3472
rfoot -8.85504 4.52703
rtoes 20.8351
lfemur -34.8841 0.290664 -20.2002
ltibia 63.0508
lfoot 3.37759 -8.27478
ltoes -20.6227
838
root -0.942099 25.2332 1.38712 -0.593182 3.71352 -355.625
lowerback 6.74589 1.01017 1.65771
upperback 2.21707 1.49704 2.20076
thorax -1.51172 0.745151 1.21525
lowerneck -12.9452 0.841216 -9.733
upperneck 42.4996 5.44993 -1.42601
head 17.8873 0.533728 2.09636
rclavicle 7.95139e-016 -1.74931e-014
rhumerus -28.8508 -7.24347 -76.8991
rradius 37.5132
rwrist 16.9833
rhand -19.9092 0.924411
rfingers 7.12502
rthumb 6.42752 -28.9581
lclavicle 7.95139e-016 -1.74931e-014
lhumerus -37.9272 18.7843 77.287
lradius 24.9463
lwrist -7.2728
lhand -13.3181 25.2075
lfingers 7.12502
lthumb 12.7865 54.7959
rfemur -11.984 -8.65492 22.0089
rtibia 38.8309
rfoot -9.05909 4.87554
rtoes 20.4235
lfemur -34.5699 0.167404 -20.3176
ltibia 60.62
lfoot 4.9956 -8.28296
ltoes -20.1557
839
root -0.925832 25.2114 1.4377 -0.552445 3.46725 -355.563
lowerback 6.71814 0.964417 1.80909
upperback 2.21385 1.44508 2.20057
thorax -1.49529 0.719308 1.13478
lowerneck -13.0243 0.926189 -9.57587
upperneck 42.4947 5.59658 -1.56921
head 17.9099 0.59523 2.02929
rclavicle 3.57812e-015 -3.49861e-014
rhumerus -28.774 -7.07723 -76.9649
rradius 37.7311
rwrist 16.9253
rhand -19.9135 1.11076
rfingers 7.12502
rthumb 6.42329 -28.7718
lclavicle 3.57812e-015 -3.49861e-014
lhumerus -38.1371 19.0129 76.7876
lradius 24.6281
lwrist -7.19972
lhand -13.608 25.0692
lfingers 7.12502
lthumb 12.5071 54.6749
rfemur -12.128 -8.76104 21.8565
rtibia 39.3624
rfoot -9.25741 5.26875
rtoes 19.5459
lfemur -34.1671 0.0729296 -20.5436
ltibia 58.2232
lfoot 6.4414 -8.34572
ltoes -20.0165
840
root -0.910068 25.1878 1.48508 -0.500597 3.20517 -355.468
lowerback 6.67969 0.954235 1.96832
upperback 2.2607 1.43841 2.17537
thorax -1.42096 0.716574 1.02132
lowerneck -13.2013 0.967149 -9.5174
upperneck 42.5114 5.65454 -1.55063
head 17.9627 0.62426 2.04176
rclavicle 2.44505e-014 1.74931e-014
rhumerus -28.6108 -6.9677 -77.0007
rradius 37.961
rwrist 16.8787
rhand -19.7903 1.13261
rfingers 7.12502
rthumb 6.54224 -28.7463
lclavicle 2.44505e-014 1.74931e-014
lhumerus -38.2005 19.27 76.3159
lradius 24.3199
lwrist -7.4783
lhand -13.6126 25.2323
lfingers 7.12502
lthumb 12.5026 54.8383
rfemur -12.3174 -8.86267 21.68
rtibia 39.9528
rfoot -9.4728 5.61876
rtoes 18.9675
lfemur -33.7489 0.029419 -20.8125
ltibia 55.8586
lfoot 7.66626 -8.48068
ltoes -19.7704
841
root -0.89475 25.1636 1.5311 -0.461517 2.93331 -355.363
lowerback 6.6599 0.989679 2.07112
upperback 2.31891 1.48964 2.1878
thorax -1.34785 0.742746 0.973606
lowerneck -13.442 0.944969 -9.49136
upperneck 42.6077 5.6506 -1.54614
head 18.0858 0.615589 2.0455
rclavicle 7.95139e-016 -9.54166e-015
rhumerus -28.4226 -6.83905 -76.9305
rradius 38.185
rwrist 16.758
rhand -19.7347 0.993072
rfingers 7.12502
rthumb 6.59594 -28.8842
lclavicle 7.95139e-016 -9.54166e-015
lhumerus -38.1914 19.5185 75.9686
lradius 23.9534
lwrist -7.6606
lhand -13.8583 25.0766
lfingers 7.12502
lthumb 12.2658 54.6969
rfemur -12.5212 -8.96854 21.4973
rtibia 40.5744
rfoot -9.71861 5.9742
rtoes 18.2396
lfemur -33.3189 0.020502 -21.1045
ltibia 53.5435
lfoot 8.71357 -8.65564
ltoes -19.029
842
root -0.877527 25.1387 1.57987 -0.379299 2.59409 -355.264
lowerback 6.63708 0.994275 2.08822
upperback 2.29311 1.49814 2.27336
thorax -1.3636 0.746554 1.0516
lowerneck -13.5105 0.978591 -9.53667
upperneck 42.6268 5.76534 -1.64223
head 18.1176 0.637324 2.03041
rclavicle -1.25234e-014 -2.22639e-014
rhumerus -28.3277 -6.59133 -76.7897
rradius 38.3576
rwrist 16.7096
rhand -19.9179 1.13492
rfingers 7.12502
rthumb 6.41903 -28.7478
lclavicle -1.25234e-014 -2.22639e-014
lhumerus -38.4306 19.8026 75.634
lradius 23.6559
lwrist -7.6463
lhand -14.2584 24.9942
lfingers 7.12502
lthumb 11.88 54.6371
rfemur -12.7758 -9.05161 21.3029
rtibia 41.208
rfoot -9.92784 6.43733
rtoes 17.5075
lfemur -32.9026 0.0514944 -21.4072
ltibia 51.298
lfoot 9.51923 -8.8155
ltoes -18.4524
843
root -0.861833 25.1097 1.62941 -0.283309 2.18209 -355.241
lowerback 6.58993 1.0222 2.17278
upperback 2.25065 1.54181 2.37509
thorax -1.38178 0.767891 1.10609
lowerneck -13.4089 1.04415 -9.57561
upperneck 42.5227 5.88375 -1.72749
head 18.0271 0.674859 2.01417
rclavicle 1.59028e-014 3.18055e-015
rhumerus -28.1981 -6.72735 -76.6056
rradius 38.3893
rwrist 16.9846
rhand -20.433 1.64893
rfingers 7.12502
rthumb 5.9218 -28.2483
lclavicle 1.59028e-014 3.18055e-015
lhumerus -38.7198 19.8773 75.3432
lradius 23.4374
lwrist -7.60987
lhand -14.3468 25.2276
lfingers 7.12502
lthumb 11.7947 54.8755
rfemur -13.0502 -9.01385 21.2084
rtibia 41.8495
rfoot -10.0953 6.89558
rtoes 17.4909
lfemur -32.5035 0.215349 -21.6326
ltibia 49.1392
lfoot 10.2259 -8.99494
ltoes -17.9479
844
root -0.847315 25.0754 1.67832 -0.259577 1.85073 -355.265
lowerback 6.56877 1.07696 2.36813
upperback 2.27094 1.62639 2.44467
thorax -1.34586 0.810393 1.06265
lowerneck -13.3275 1.04718 -9.54459
upperneck 42.346 5.89003 -1.83872
head 17.9079 0.679097 1.95368
rclavicle -1.49089e-014 -2.22639e-014
rhumerus -28.0425 -6.89284 -76.4275
rradius 38.5002
rwrist 17.0793
rhand -21.0362 2.23764
rfingers 7.12502
rthumb 5.33939 -27.6751
lclavicle -1.49089e-014 -2.22639e-014
lhumerus -38.8355 20.1743 74.9105
lradius 23.0906
lwrist -8.24485
lhand -14.1829 25.5202
lfingers 7.12502
lthumb 11.9527 55.159
rfemur -13.238 -8.99525 21.1753
rtibia 42.4995
rfoot -10.2957 7.31681
rtoes 18.2593
lfemur -32.0241 0.382129 -21.8441
ltibia 47.0482
lfoot 10.73 -9.28745
ltoes -18.5742
845
root -0.831404 25.041 1.72614 -0.258501 1.50397 -355.285
lowerback 6.59463 1.11619 2.53631
upperback 2.29729 1.69025 2.5174
thorax -1.33036 0.842428 1.03843
lowerneck -13.3338 1.05538 -9.53556
upperneck 42.2637 5.91489 -1.9058
head 17.8646 0.685291 1.9242
rclavicle -3.97569e-016 3.02153e-014
rhumerus -27.8673 -6.76138 -76.3199
rradius 38.5981
rwrist 16.9451
rhand -20.9787 2.26015
rfingers 7.12502
rthumb 5.39494 -27.6512
lclavicle -3.97569e-016 3.02153e-014
lhumerus -38.9632 20.7153 74.3086
lradius 22.6727
lwrist -9.29682
lhand -13.8041 25.8807
lfingers 7.12502
lthumb 12.318 55.4978
rfemur -13.4145 -9.02231 21.1147
rtibia 43.1841
rfoot -10.4592 7.74693
rtoes 18.5165
lfemur -31.4822 0.543263 -22.0794
ltibia 45.0053
lfoot 10.899 -9.56695
ltoes -19.5975
846
root -0.816929 25.0058 1.77316 -0.303772 1.17106 -355.36
lowerback 6.6651 1.09318 2.69086
upperback 2.34437 1.67256 2.63072
thorax -1.31978 0.833737 1.06919
lowerneck -13.4408 1.10251 -9.5717
upperneck 42.2723 6.00683 -1.90241
head 17.8927 0.712477 1.95024
rclavicle -2.36554e-014 -2.70347e-014
rhumerus -27.6381 -6.46093 -76.2797
rradius 38.6676
rwrist 16.8108
rhand -20.4022 1.44482
rfingers 7.12502
rthumb 5.95156 -28.4516
lclavicle -2.36554e-014 -2.70347e-014
lhumerus -39.1332 21.282 73.7373
lradius 22.3001
lwrist -9.96539
lhand -13.6252 26.318
lfingers 7.12502
lthumb 12.4905 55.9248
rfemur -13.5699 -8.99874 21.1245
rtibia 43.9198
rfoot -10.7567 8.11848
rtoes 18.1334
lfemur -30.8904 0.666533 -22.2168
ltibia 42.9792
lfoot 11.2222 -9.53183
ltoes -19.146
847
root -0.802192 24.9626 1.81943 -0.349012 0.980064 -355.437
lowerback 6.70168 1.03452 2.88559
upperback 2.41482 1.60758 2.73505
thorax -1.26489 0.802149 1.07289
lowerneck -13.5488 1.15308 -9.50623
upperneck 42.3119 6.08782 -1.9302
head 17.944 0.745547 1.94295
rclavicle 1.2921e-014 -3.49861e-014
rhumerus -27.4223 -6.28438 -76.1889
rradius 38.7675
rwrist 16.9263
rhand -20.6086 1.21124
rfingers 7.12502
rthumb 5.75224 -28.6907
lclavicle 1.2921e-014 -3.49861e-014
lhumerus -39.2585 21.4679 73.3832
lradius 22.0621
lwrist -10.1047
lhand -13.5595 26.4906
lfingers 7.12502
lthumb 12.5538 56.0934
rfemur -13.7439 -9.0666 21.1329
rtibia 44.6947
rfoot -10.9991 8.52039
rtoes 18.6661
lfemur -30.3022 0.685849 -22.3668
ltibia 40.9782
lfoot 11.8901 -9.35335
ltoes -17.8953
